<svg xmlns="http://www.w3.org/2000/svg" xmlns:xlink="http://www.w3.org/1999/xlink" xmlns:serif="http://www.serif.com/" viewBox="0 0 32 40" version="1.1" xml:space="preserve" style="" x="0px" y="0px" fill-rule="evenodd" clip-rule="evenodd" stroke-linejoin="round" stroke-miterlimit="2"><g transform="matrix(1,0,0,1,-288,-48)"><path d="M317,72.989C317,72.825 316.96,72.664 316.883,72.519C311.515,62.446 296.485,62.457 291.118,72.519C291.04,72.664 291,72.825 291,72.989L291,74.004C291,74.382 291.214,74.729 291.553,74.898C299.853,79.043 308.154,79.121 316.454,74.895C316.789,74.724 317,74.38 317,74.004L317,72.989ZM304,50C300.137,50 297,53.137 297,57C297,60.863 300.137,64 304,64C307.863,64 311,60.863 311,57C311,53.137 307.863,50 304,50Z"/></g><text x="0" y="47" fill="#000000" font-size="5px" font-weight="bold" font-family="'Helvetica Neue', Helvetica, Arial-Unicode, Arial, Sans-serif">Created by Mila Karmila</text><text x="0" y="52" fill="#000000" font-size="5px" font-weight="bold" font-family="'Helvetica Neue', Helvetica, Arial-Unicode, Arial, Sans-serif">from the Noun Project</text></svg>