<svg xmlns:inkscape="http://www.inkscape.org/namespaces/inkscape" xmlns:sodipodi="http://sodipodi.sourceforge.net/DTD/sodipodi-0.dtd" xmlns="http://www.w3.org/2000/svg" xmlns:svg="http://www.w3.org/2000/svg" viewBox="0 0 96 120" version="1.1" x="0px" y="0px"><g><path style="color:#000000;" d="M 46.585937,2.5857451 2.5859381,46.585745 c -1.2591134,1.259989 -0.367212,3.413365 1.4140625,3.414063 H 14 v 42 c 1.11e-4,1.104524 0.895476,1.99989 2,2 h 17.167969 c 1.104524,-1.1e-4 1.99989,-0.895476 2,-2 V 74.831839 c 0,-7.144093 5.687938,-12.832031 12.832031,-12.832031 7.144093,0 12.832031,5.687938 12.832031,12.832031 v 17.167969 c 1.11e-4,1.104524 0.895476,1.99989 2,2 H 80 c 1.104524,-1.1e-4 1.99989,-0.895476 2,-2 v -42 h 10 c 1.781274,-6.99e-4 2.673175,-2.154074 1.414062,-3.414063 l -44,-43.9999999 c -0.781059,-0.7807369 -2.047065,-0.7807369 -2.828125,0 z" fill="#000000" stroke-linecap="round" stroke-linejoin="round"/></g><text x="0" y="111" fill="#000000" font-size="5px" font-weight="bold" font-family="'Helvetica Neue', Helvetica, Arial-Unicode, Arial, Sans-serif">Created by Mohammad Nasrullahi</text><text x="0" y="116" fill="#000000" font-size="5px" font-weight="bold" font-family="'Helvetica Neue', Helvetica, Arial-Unicode, Arial, Sans-serif">from the Noun Project</text></svg>