<svg xmlns="http://www.w3.org/2000/svg" xmlns:xlink="http://www.w3.org/1999/xlink" version="1.1" x="0px" y="0px" viewBox="0 0 100 125" enable-background="new 0 0 100 100" xml:space="preserve"><g><polygon points="69.802,21.334 30.177,21.334 24.604,33.335 75.375,33.335  "/><path d="M24.5,35.335v4.916c0,2.348,1.902,4.25,4.25,4.25S33,42.599,33,40.251c0,2.348,1.902,4.25,4.25,4.25s4.25-1.902,4.25-4.25   c0,2.348,1.902,4.25,4.25,4.25S50,42.599,50,40.251c0,2.348,1.902,4.25,4.25,4.25s4.25-1.902,4.25-4.25   c0,2.348,1.902,4.25,4.25,4.25S67,42.599,67,40.251c0,2.348,1.902,4.25,4.25,4.25s4.25-1.902,4.25-4.25v-4.916H24.5z"/><path d="M69.813,15.439c0-1.485-1.062-2.689-2.372-2.689H32.559c-1.31,0-2.372,1.204-2.372,2.689v4.398h39.625V15.439z    M54.406,17.377h-8.834c-0.598,0-1.083-0.485-1.083-1.083c0-0.598,0.485-1.083,1.083-1.083h8.834c0.598,0,1.083,0.485,1.083,1.083   C55.489,16.892,55.004,17.377,54.406,17.377z"/><path d="M68.676,80.414H31.324V46.5h-1.136V84.56c0,1.486,1.062,2.69,2.372,2.69H67.44c1.311,0,2.372-1.204,2.372-2.69V46.5h-1.137   V80.414z M49.989,86.5c-1.564,0-2.834-1.268-2.834-2.833s1.27-2.833,2.834-2.833s2.834,1.268,2.834,2.833S51.554,86.5,49.989,86.5z   "/><polygon points="64.093,68.013 64.093,50.801 62.354,50.801 62.354,50.861 60.614,52.3 60.614,58.656 62.354,60.096 62.354,68.013     "/><polygon points="35.907,52.24 35.907,57.458 35.908,57.458 35.908,58.117 38.726,58.117 38.726,68.013 40.465,68.013    40.465,58.117 43.164,58.117 43.164,57.248 43.164,56.378 43.164,52.24 41.424,50.801 41.424,56.378 40.405,56.378 40.405,50.801    38.666,50.801 38.666,56.378 37.646,56.378 37.646,50.801  "/><path d="M45.952,52.18v1.649h-1.649v11.695h1.649v1.647h11.693v-1.647h1.649V53.829h-1.649V52.18H45.952z M57.644,64.235h-1.286   v1.286H47.24v-1.286h-1.286v-9.118h1.286v-1.285h9.118v1.285h1.286V64.235z"/><rect x="48.769" y="56.646" width="6.061" height="6.062"/></g><path d="M207.291,13.438"/><path d="M202.291,18.438"/><text x="0" y="115" fill="#000000" font-size="5px" font-weight="bold" font-family="'Helvetica Neue', Helvetica, Arial-Unicode, Arial, Sans-serif">Created by asianson.design</text><text x="0" y="120" fill="#000000" font-size="5px" font-weight="bold" font-family="'Helvetica Neue', Helvetica, Arial-Unicode, Arial, Sans-serif">from the Noun Project</text></svg>