<svg xmlns="http://www.w3.org/2000/svg" xmlns:xlink="http://www.w3.org/1999/xlink" version="1.1" x="0px" y="0px" viewBox="0 0 64 80" style="enable-background:new 0 0 64 64;" xml:space="preserve"><path d="M63.09,60.45c0-3.62-0.53-5.71-1.19-7.92c-2.39-7.14-7.37-8.78-12.65-10.52l-0.16-0.05c-2.05-0.68-3.9-1.32-5.78-2.23  c-1.26-0.61-2.38-1.29-3.41-2.05c1.67-1.67,3.1-3.81,4.17-6.22l3.84,0.39c0.12,0.01,0.24,0.02,0.36,0.02c1.65,0,3.14-1.12,3.47-2.68  l1.5-7c0.2-0.92-0.02-1.88-0.62-2.63c-0.59-0.75-1.47-1.2-2.45-1.29C49.11,7.96,41.28,0,32,0c-9.29,0-17.12,7.97-18.18,18.28  c-0.97,0.1-1.85,0.55-2.44,1.29c-0.59,0.75-0.81,1.71-0.61,2.63l1.5,7c0.33,1.56,1.81,2.68,3.47,2.68c0.12,0,0.24-0.01,0.36-0.02  l3.83-0.39c1.07,2.41,2.5,4.55,4.17,6.22c-1.03,0.76-2.16,1.44-3.42,2.05c-1.89,0.92-3.81,1.58-5.79,2.23l-0.15,0.05  C9.48,43.75,4.5,45.4,2.09,52.56c-0.81,2.68-1.4,5.15-1.11,10.52C1.01,63.6,1.43,64,1.95,64h60.1c0.51,0,0.94-0.4,0.97-0.91  C63.07,62.15,63.09,61.27,63.09,60.45C63.09,60.45,63.09,60.45,63.09,60.45C63.09,60.45,63.09,60.45,63.09,60.45z M49.3,20.17  c0,0,0.01,0,0.01,0l0.56,0.01c0.5,0.01,0.95,0.23,1.23,0.59c0.24,0.3,0.32,0.66,0.25,1.02l-1.5,7C49.69,29.5,48.9,30,48.1,29.93  l-3.28-0.34c0.03-0.09,0.07-0.17,0.1-0.26c0.85-2.53,1.29-5.12,1.29-7.7c0-0.52-0.04-1.02-0.07-1.51L49.3,20.17  C49.29,20.17,49.29,20.17,49.3,20.17z M15.91,29.93c-0.8,0.08-1.59-0.43-1.74-1.14l-1.5-7c-0.08-0.36,0.01-0.72,0.25-1.02  c0.28-0.36,0.73-0.58,1.22-0.59l3.74-0.07c-0.03,0.5-0.07,0.99-0.07,1.51c0,2.59,0.43,5.18,1.28,7.7c0.03,0.09,0.07,0.17,0.1,0.26  L15.91,29.93z M18.09,18.17l-2.31,0.04C16.85,9.01,23.79,1.94,32,1.94c8.21,0,15.14,7.07,16.21,16.27l-2.3-0.04  c-0.27-1.72-0.74-3.29-1.44-4.64C42.26,9.19,37.83,6.8,32,6.8c-5.84,0-10.27,2.39-12.49,6.73C18.82,14.89,18.37,16.45,18.09,18.17z   M20.93,28.71c-0.78-2.33-1.18-4.71-1.18-7.08c0-2.85,0.5-5.27,1.5-7.22C23.64,9.72,28.42,8.74,32,8.74c3.58,0,8.36,0.98,10.75,5.68  c1,1.93,1.51,4.36,1.51,7.21c0,2.37-0.4,4.76-1.18,7.08c-1.14,3.38-3.02,6.33-5.3,8.31c-1.87,1.61-3.86,2.47-5.77,2.47  c-1.91,0-3.91-0.85-5.77-2.47c-0.12-0.1-0.23-0.21-0.34-0.32c-0.02-0.02-0.05-0.05-0.07-0.07C23.73,34.67,22,31.89,20.93,28.71z   M61.12,62.06H2.88c-0.16-4.43,0.37-6.6,1.07-8.91c2.09-6.22,6.2-7.58,11.41-9.3l0.15-0.05c2.04-0.67,4.03-1.35,6.03-2.33  c1.5-0.73,2.83-1.55,4.05-2.49c2.05,1.59,4.26,2.44,6.42,2.44c2.16,0,4.37-0.85,6.42-2.44c1.22,0.94,2.55,1.76,4.05,2.49  c1.98,0.97,3.9,1.63,6.02,2.33l0.17,0.05c5.21,1.72,9.33,3.08,11.41,9.26c0.62,2.1,1.1,3.97,1.1,7.33  C61.15,60.96,61.14,61.5,61.12,62.06z"/><text x="0" y="79" fill="#000000" font-size="5px" font-weight="bold" font-family="'Helvetica Neue', Helvetica, Arial-Unicode, Arial, Sans-serif">Created by Vector Portal</text><text x="0" y="84" fill="#000000" font-size="5px" font-weight="bold" font-family="'Helvetica Neue', Helvetica, Arial-Unicode, Arial, Sans-serif">from the Noun Project</text></svg>