<svg xmlns="http://www.w3.org/2000/svg" xmlns:xlink="http://www.w3.org/1999/xlink" version="1.1" x="0px" y="0px" viewBox="0 0 48 60" enable-background="new 0 0 48 48" xml:space="preserve"><path d="M33.63,15.45h-2.14v-2.81c0-3.82-3.67-6.92-7.49-6.92s-7.49,3.1-7.49,6.92v2.81h-2.14V28.3h19.27V15.45z M27.21,15.45h-6.42  v-2.81c0-1.94,1.28-3.51,3.21-3.51c1.94,0,3.21,1.58,3.21,3.51V15.45z M10.86,35.02c-0.11-0.35-0.44-0.6-0.8-0.6  c-0.1,0-0.19,0.02-0.28,0.06l-2.72,1.14l0.26-2.94c0.02-0.21-0.06-0.43-0.22-0.6C6.94,31.9,6.72,31.8,6.49,31.8H5.2  c-0.23,0-0.45,0.1-0.61,0.28c-0.15,0.17-0.23,0.38-0.22,0.6l0.24,2.96l-2.73-1.16c-0.09-0.04-0.18-0.06-0.28-0.06  c-0.36,0-0.7,0.25-0.8,0.6l-0.39,1.21c-0.07,0.22-0.04,0.48,0.08,0.69c0.11,0.2,0.29,0.33,0.49,0.38l2.85,0.66l-1.91,2.21  c-0.13,0.17-0.19,0.39-0.17,0.61c0.03,0.23,0.15,0.43,0.33,0.57l1.05,0.75c0.15,0.11,0.33,0.17,0.52,0.17  c0.29,0,0.54-0.14,0.66-0.36l1.52-2.53l1.52,2.53c0.14,0.22,0.4,0.36,0.68,0.36c0.17,0,0.34-0.05,0.49-0.15l1.05-0.76  c0.2-0.14,0.32-0.36,0.35-0.61c0.02-0.23-0.04-0.44-0.18-0.6l-1.91-2.23l2.85-0.67c0.21-0.05,0.39-0.18,0.5-0.38  c0.12-0.21,0.14-0.45,0.07-0.66L10.86,35.02z M22.97,35.02c-0.11-0.35-0.44-0.6-0.8-0.6c-0.1,0-0.19,0.02-0.28,0.06l-2.72,1.14  l0.26-2.94c0.02-0.21-0.06-0.43-0.22-0.6c-0.16-0.18-0.38-0.27-0.61-0.27h-1.29c-0.23,0-0.45,0.1-0.61,0.28  c-0.15,0.17-0.23,0.38-0.22,0.6l0.24,2.96l-2.73-1.16c-0.09-0.04-0.18-0.06-0.28-0.06c-0.36,0-0.7,0.25-0.8,0.6l-0.39,1.21  c-0.07,0.22-0.04,0.48,0.08,0.69c0.11,0.2,0.29,0.33,0.49,0.38l2.85,0.66l-1.91,2.21c-0.13,0.17-0.19,0.39-0.17,0.61  c0.03,0.23,0.15,0.43,0.34,0.57l1.05,0.75c0.15,0.11,0.33,0.17,0.52,0.17c0.29,0,0.54-0.14,0.66-0.36l1.52-2.53l1.52,2.53  c0.14,0.22,0.4,0.36,0.68,0.36c0.17,0,0.34-0.05,0.49-0.15l1.05-0.76c0.2-0.14,0.32-0.36,0.35-0.61c0.02-0.23-0.04-0.44-0.18-0.6  l-1.91-2.23l2.85-0.67c0.21-0.05,0.39-0.18,0.5-0.38c0.12-0.21,0.14-0.45,0.07-0.66L22.97,35.02z M47.59,36.24l-0.39-1.21  c-0.11-0.35-0.44-0.6-0.8-0.6c-0.1,0-0.19,0.02-0.28,0.06l-2.72,1.14l0.26-2.94c0.02-0.21-0.06-0.43-0.22-0.6  c-0.16-0.18-0.38-0.27-0.61-0.27h-1.29c-0.23,0-0.45,0.1-0.61,0.28c-0.15,0.17-0.23,0.38-0.22,0.6l0.24,2.96l-2.73-1.16  c-0.09-0.04-0.18-0.06-0.28-0.06c-0.36,0-0.7,0.25-0.8,0.6l-0.39,1.21c-0.07,0.22-0.04,0.48,0.08,0.69c0.11,0.2,0.29,0.33,0.49,0.38  l2.85,0.66l-1.91,2.21c-0.13,0.17-0.19,0.39-0.17,0.61c0.03,0.23,0.15,0.43,0.34,0.57l1.05,0.75c0.15,0.11,0.33,0.17,0.52,0.17  c0.29,0,0.54-0.14,0.66-0.36l1.52-2.53l1.52,2.53c0.14,0.22,0.4,0.36,0.68,0.36c0.17,0,0.34-0.05,0.49-0.15l1.05-0.76  c0.2-0.14,0.32-0.36,0.35-0.61c0.02-0.23-0.04-0.44-0.18-0.6l-1.91-2.23l2.85-0.67c0.21-0.05,0.39-0.18,0.5-0.38  C47.63,36.69,47.66,36.45,47.59,36.24z M35.09,35.02c-0.11-0.35-0.44-0.6-0.8-0.6c-0.1,0-0.19,0.02-0.28,0.06l-2.72,1.14l0.26-2.94  c0.02-0.21-0.06-0.43-0.22-0.6c-0.16-0.18-0.38-0.27-0.61-0.27h-1.29c-0.23,0-0.45,0.1-0.61,0.28c-0.15,0.17-0.23,0.38-0.22,0.6  l0.24,2.96l-2.73-1.16c-0.09-0.04-0.18-0.06-0.28-0.06c-0.36,0-0.7,0.25-0.8,0.6l-0.39,1.21c-0.07,0.22-0.04,0.48,0.08,0.69  c0.11,0.2,0.29,0.33,0.49,0.38l2.85,0.66l-1.91,2.21c-0.13,0.17-0.19,0.39-0.17,0.61c0.03,0.23,0.15,0.43,0.34,0.57l1.05,0.75  c0.15,0.11,0.33,0.17,0.52,0.17c0.29,0,0.54-0.14,0.66-0.36l1.52-2.53l1.52,2.53c0.14,0.22,0.4,0.36,0.68,0.36  c0.17,0,0.34-0.05,0.49-0.15l1.05-0.76c0.2-0.14,0.32-0.36,0.35-0.61c0.02-0.23-0.04-0.44-0.18-0.6l-1.91-2.23l2.85-0.67  c0.21-0.05,0.39-0.18,0.5-0.38c0.12-0.21,0.14-0.45,0.07-0.66L35.09,35.02z"/><text x="0" y="63" fill="#000000" font-size="5px" font-weight="bold" font-family="'Helvetica Neue', Helvetica, Arial-Unicode, Arial, Sans-serif">Created by Scott Dunlap</text><text x="0" y="68" fill="#000000" font-size="5px" font-weight="bold" font-family="'Helvetica Neue', Helvetica, Arial-Unicode, Arial, Sans-serif">from the Noun Project</text></svg>