<svg xmlns="http://www.w3.org/2000/svg" xmlns:xlink="http://www.w3.org/1999/xlink" version="1.1" x="0px" y="0px" viewBox="0 0 100 125" style="enable-background:new 0 0 100 100;" xml:space="preserve"><style type="text/css">
	.st0{fill-rule:evenodd;clip-rule:evenodd;}
</style><path class="st0" d="M92.497,7.506H7.508v12.237h84.989V7.506L92.497,7.506z M40.176,33.051c-1.986,0-1.986-3.017,0-3.017H59.83  c1.986,0,1.986,3.017,0,3.017H40.176L40.176,33.051z M17.074,65.026H7.503l0,27.468h9.571V65.026L17.074,65.026z M53.542,76.105  h33.94V22.761h-74.96v39.248c7.932,0,7.568-0.683,7.568,3.502l10.17-3.502h10.942v0.002c0.433,0,0.863,0.187,1.161,0.546  L53.542,76.105L53.542,76.105z M42.817,80.074l7.716,7.1c0.275,0.287,0.662,0.466,1.091,0.466h22.469  c1.528,0,2.422,0.58,2.774,1.335l0.005-0.002c0.699,1.862-0.668,3.522-2.779,3.522H30.474L20.091,89.27V68.705l10.42-3.679h9.985  l9.754,11.762c-0.485,0.472-1.123,0.874-1.921,1.089c-0.968,0.26-2.182,0.255-3.669-0.203l-5.132-4.829  c-1.443-1.358-3.505,0.834-2.062,2.192L42.817,80.074z"/><text x="0" y="115" fill="#000000" font-size="5px" font-weight="bold" font-family="'Helvetica Neue', Helvetica, Arial-Unicode, Arial, Sans-serif">Created by Purwanto</text><text x="0" y="120" fill="#000000" font-size="5px" font-weight="bold" font-family="'Helvetica Neue', Helvetica, Arial-Unicode, Arial, Sans-serif">from the Noun Project</text></svg>