<svg xmlns="http://www.w3.org/2000/svg" xmlns:xlink="http://www.w3.org/1999/xlink" version="1.1" x="0px" y="0px" viewBox="0 0 100 125" style="enable-background:new 0 0 100 100;" xml:space="preserve"><path d="M58.5,43.8h-2.4c-2.7,2.5-7,4.1-11.9,4.1s-9.3-1.6-11.9-4.1h-1.7c-8.7,0-15.8,5.3-15.8,11.9h58.9  C73.6,49.2,66.9,43.8,58.5,43.8z"/><path d="M44.2,9.4c-9.8,0-17.7,7.9-17.7,17.7c0,9.8,7.9,17.7,17.7,17.7c9.8,0,17.7-7.9,17.7-17.7  C61.9,17.4,54,9.4,44.2,9.4z M44.2,40.9c-7.6,0-13.7-6.2-13.7-13.7c0-1.2,0.2-2.3,0.4-3.4c1.6,0.8,4.5,1.9,7.9,1.9  c2.4,0,5-0.6,7.5-2.3c0.3-0.2,6.3-4.5,11.1-0.2c0.4,1.2,0.6,2.6,0.6,3.9C57.9,34.7,51.8,40.9,44.2,40.9z"/><path d="M85.8,97.1H76c0.6-0.8,1-1.8,1-2.9V62.4c0-2.7-2.2-4.8-4.8-4.8H16.1c-2.7,0-4.8,2.2-4.8,4.8v31.7  c0,1.1,0.4,2.1,1,2.9h-11c-0.5,0-0.9,0.4-0.9,0.9v0.1c0,0.5,0.4,0.9,0.9,0.9h84.5c0.5,0,0.9-0.4,0.9-0.9V98  C86.7,97.5,86.3,97.1,85.8,97.1z M44.2,83.5c-3,0-5.4-2.4-5.4-5.4c0-3,2.4-5.4,5.4-5.4c3,0,5.4,2.4,5.4,5.4  C49.6,81.1,47.2,83.5,44.2,83.5z"/><path d="M87.3,17.8h-7.2c-0.1,0-0.1,0.1-0.1,0.1v1.2c0,0.1,0.1,0.1,0.1,0.1h7.2c0.1,0,0.1-0.1,0.1-0.1V18  C87.5,17.9,87.4,17.8,87.3,17.8z"/><path d="M84,20.5h-3.8c-0.1,0-0.1,0.1-0.1,0.1v1.2c0,0.1,0.1,0.1,0.1,0.1H84c0.1,0,0.1-0.1,0.1-0.1v-1.2  C84.2,20.6,84.1,20.5,84,20.5z"/><path d="M87.3,15.2h-7.2c-0.1,0-0.1,0.1-0.1,0.1v1.2c0,0.1,0.1,0.1,0.1,0.1h7.2c0.1,0,0.1-0.1,0.1-0.1v-1.2  C87.5,15.3,87.4,15.2,87.3,15.2z"/><path d="M98.5,12.8C96.3,4.1,87.5-1.1,78.8,1.1S64.8,12.1,67.1,20.8c1.1,4.1,3.6,7.5,6.9,9.6l-4.3,6.5l17.2-4.4  C95.5,30.3,100.7,21.5,98.5,12.8z M90.8,22.9c0,1.1-0.9,2-2,2H78.7c-1.1,0-2-0.9-2-2V9.2c0-1.1,0.9-2,2-2l7.1,0L86,7.3  c0.1,0,0.1,0.1,0.1,0.1l4.5,4.5c0.1,0.1,0.1,0.1,0.1,0.2l0,0.2V22.9z"/><path d="M86.3,9.4c0,0-0.1-0.1-0.1,0c0,0-0.1,0.1-0.1,0.1v1.8c0,0.4,0.3,0.7,0.7,0.7h1.8c0.1,0,0.1,0,0.1-0.1  c0,0,0-0.1,0-0.1L86.3,9.4z"/><text x="0" y="115" fill="#000000" font-size="5px" font-weight="bold" font-family="'Helvetica Neue', Helvetica, Arial-Unicode, Arial, Sans-serif">Created by Aneeque Ahmed</text><text x="0" y="120" fill="#000000" font-size="5px" font-weight="bold" font-family="'Helvetica Neue', Helvetica, Arial-Unicode, Arial, Sans-serif">from the Noun Project</text></svg>